<svg data-v-fde0c5aa="" xmlns="http://www.w3.org/2000/svg" viewBox="0 0 300 300" class="iconLeftSlogan"><!----><defs data-v-fde0c5aa=""><!----></defs><rect data-v-fde0c5aa="" fill="#FFE9E6" x="0" y="0" width="300px" height="300px" class="logo-background-square"></rect><defs data-v-fde0c5aa=""><!----></defs><g data-v-fde0c5aa="" id="ce239d34-9b1c-44ae-956b-9b440e7f53d6" fill="#3A1C18" transform="matrix(2.68581524607322,0,0,2.68581524607322,129.44252125017752,117.07656728458794)"><path d="M6.29 13.58L9.77 3.92L7.71 3.92L5.11 12.10L2.55 3.92L0.45 3.92L3.86 13.58ZM16.73 9.70C16.73 7.67 15.53 5.94 13.24 5.94C10.96 5.94 9.46 7.60 9.46 9.88C9.46 12.50 11.05 13.78 13.09 13.78C14.84 13.78 16.24 12.89 16.62 11.16L14.69 11.16C14.56 11.96 13.96 12.42 13.13 12.42C12.24 12.42 11.54 11.93 11.41 10.36L16.70 10.36C16.73 10.11 16.73 9.88 16.73 9.70ZM13.16 7.29C14.08 7.29 14.62 7.92 14.74 9.10L11.47 9.10C11.63 7.87 12.26 7.29 13.16 7.29ZM25.00 8.02C24.85 6.72 23.94 5.94 22.36 5.94C21.64 5.94 21.10 6.08 20.57 6.45L19.99 7.34L19.99 6.13L18.06 6.13L18.06 13.58L19.99 13.58L19.99 10.18C19.99 8.11 20.73 7.29 21.67 7.29C22.61 7.29 23.04 7.83 23.10 8.61C23.13 8.99 23.13 9.34 23.13 9.65L23.13 13.58L25.06 13.58L25.06 9.38C25.06 8.78 25.05 8.40 25.00 8.02ZM33.99 3.29L32.06 3.29L32.06 7.13L31.57 6.36C31.19 6.09 30.44 5.94 29.82 5.94C27.90 5.94 26.25 7.29 26.25 10.00C26.25 12.19 27.48 13.78 29.57 13.78C30.32 13.78 31.08 13.58 31.50 13.26L32.06 12.43L32.06 13.58L33.99 13.58ZM30.13 12.42C28.98 12.42 28.25 11.40 28.25 9.87C28.25 8.15 29.08 7.29 30.20 7.29C31.09 7.29 32.06 7.90 32.06 9.58L32.06 9.94C32.06 11.76 31.19 12.42 30.13 12.42ZM39.14 5.94C36.67 5.94 35.28 7.59 35.28 9.86C35.28 12.11 36.67 13.78 39.14 13.78C41.62 13.78 43.01 12.11 43.01 9.86C43.01 7.59 41.62 5.94 39.14 5.94ZM39.14 12.42C37.98 12.42 37.28 11.45 37.28 9.86C37.28 8.25 37.98 7.29 39.14 7.29C40.31 7.29 41.01 8.25 41.01 9.86C41.01 11.45 40.31 12.42 39.14 12.42ZM48.06 5.95C47.64 5.95 47.15 6.12 46.79 6.45L46.20 7.49L46.20 6.13L44.27 6.13L44.27 13.58L46.20 13.58L46.20 10.16C46.20 8.16 47.00 7.45 48.61 7.56L48.61 6.01C48.44 5.96 48.29 5.95 48.06 5.95Z"></path></g><defs data-v-fde0c5aa=""><linearGradient data-v-fde0c5aa="" gradientTransform="rotate(25)" id="e672ba26-6780-455d-a29b-9b6006697c9c" x1="0%" y1="0%" x2="100%" y2="0%"><stop data-v-fde0c5aa="" offset="0%" stop-color="#FF5A20" stop-opacity="1"></stop><stop data-v-fde0c5aa="" offset="100%" stop-color="#FFACC7" stop-opacity="1"></stop></linearGradient></defs><g data-v-fde0c5aa="" id="2c90014c-1c07-4727-9d4a-d99c36f58fcc" stroke="none" fill="url(#e672ba26-6780-455d-a29b-9b6006697c9c)" transform="matrix(2.068545649293812,0,0,2.068545649293812,40,119.33138469956762)"><path d="M31.104 23.375l6.435-12.492h-24.07L7.823 0H0v3.69h5.551l10.127 19.685h15.426zM18.549 29.589c.788 0 1.419-.284 1.956-.82a2.692 2.692 0 0 0 .819-1.956c0-.787-.283-1.45-.819-1.985-.537-.537-1.168-.821-1.956-.821a2.71 2.71 0 0 0-1.988.821c-.536.535-.788 1.198-.788 1.985 0 .758.251 1.42.788 1.956.536.536 1.198.82 1.988.82zM28.391 29.652c-.788 0-1.42-.284-1.956-.82s-.82-1.199-.82-1.956c0-.788.284-1.45.82-1.986.536-.537 1.168-.82 1.956-.82.789 0 1.451.283 1.987.82.537.536.788 1.198.788 1.986 0 .757-.251 1.42-.788 1.956a2.713 2.713 0 0 1-1.987.82z"></path></g><defs data-v-fde0c5aa=""><!----></defs><g data-v-fde0c5aa="" id="777bb816-3a51-4062-ae87-2e09d93d8d56" fill="#3A1C18" transform="matrix(0.618125132545762,0,0,0.618125132545762,130.25553804610652,160.57615001153516)"><path d="M0.64 15.68L0.64 5.88L2.88 5.88L4.20 15.18L4.37 15.18L5.68 5.88L7.92 5.88L7.92 15.68L6.83 15.68L6.83 6.38L6.66 6.38L5.35 15.68L3.22 15.68L1.90 6.38L1.74 6.38L1.74 15.68L0.64 15.68ZM22.67 15.68L21.95 13.24L17.75 13.24L17.04 15.68L15.78 15.68L18.75 5.88L20.96 5.88L23.93 15.68L22.67 15.68ZM19.94 6.38L19.77 6.38L18.07 12.15L21.63 12.15L19.94 6.38ZM38.49 12.15L38.49 15.68L37.31 15.68L37.31 12.40L37.31 12.40Q37.31 12.04 37.14 11.84L37.14 11.84L37.14 11.84Q36.97 11.65 36.55 11.65L36.55 11.65L33.50 11.65L33.50 15.68L32.33 15.68L32.33 5.88L35.83 5.88L35.83 5.88Q36.58 5.88 37.14 6.10L37.14 6.10L37.14 6.10Q37.70 6.31 38.07 6.68L38.07 6.68L38.07 6.68Q38.44 7.04 38.63 7.53L38.63 7.53L38.63 7.53Q38.82 8.01 38.82 8.54L38.82 8.54L38.82 8.96L38.82 8.96Q38.82 9.51 38.52 10.05L38.52 10.05L38.52 10.05Q38.22 10.60 37.59 10.89L37.59 10.89L37.59 11.06L37.59 11.06Q38.01 11.13 38.25 11.40L38.25 11.40L38.25 11.40Q38.49 11.66 38.49 12.15L38.49 12.15ZM33.50 6.97L33.50 10.56L35.69 10.56L35.69 10.56Q36.68 10.56 37.16 10.13L37.16 10.13L37.16 10.13Q37.65 9.70 37.65 8.88L37.65 8.88L37.65 8.62L37.65 8.62Q37.65 7.88 37.16 7.43L37.16 7.43L37.16 7.43Q36.68 6.97 35.69 6.97L35.69 6.97L33.50 6.97ZM49.13 11.31L49.13 15.68L47.95 15.68L47.95 5.88L49.13 5.88L49.13 10.22L49.45 10.22L53.21 5.88L54.67 5.88L54.67 5.96L50.61 10.70L50.61 10.86L54.84 15.60L54.84 15.68L53.35 15.68L49.45 11.31L49.13 11.31ZM63.59 15.68L63.59 5.88L69.52 5.88L69.52 6.97L64.76 6.97L64.76 10.22L69.44 10.22L69.44 11.31L64.76 11.31L64.76 14.59L69.61 14.59L69.61 15.68L63.59 15.68ZM78.68 6.97L78.68 5.88L85.57 5.88L85.57 6.97L82.71 6.97L82.71 15.68L81.54 15.68L81.54 6.97L78.68 6.97ZM110.31 15.68L110.31 5.88L116.33 5.88L116.33 6.97L111.48 6.97L111.48 10.22L116.24 10.22L116.24 11.31L111.48 11.31L111.48 15.68L110.31 15.68ZM125.38 11.87L125.38 9.69L125.38 9.69Q125.38 7.78 126.29 6.73L126.29 6.73L126.29 6.73Q127.20 5.68 128.83 5.68L128.83 5.68L128.83 5.68Q130.45 5.68 131.36 6.73L131.36 6.73L131.36 6.73Q132.27 7.78 132.27 9.69L132.27 9.69L132.27 11.87L132.27 11.87Q132.27 13.83 131.36 14.85L131.36 14.85L131.36 14.85Q130.45 15.88 128.83 15.88L128.83 15.88L128.83 15.88Q127.20 15.88 126.29 14.85L126.29 14.85L126.29 14.85Q125.38 13.83 125.38 11.87L125.38 11.87ZM128.83 14.78L128.83 14.78L128.83 14.78Q129.96 14.78 130.53 14.01L130.53 14.01L130.53 14.01Q131.10 13.23 131.10 11.79L131.10 11.79L131.10 9.77L131.10 9.77Q131.10 8.43 130.53 7.60L130.53 7.60L130.53 7.60Q129.96 6.78 128.83 6.78L128.83 6.78L128.83 6.78Q127.69 6.78 127.13 7.60L127.13 7.60L127.13 7.60Q126.56 8.43 126.56 9.77L126.56 9.77L126.56 11.79L126.56 11.79Q126.56 13.23 127.13 14.01L127.13 14.01L127.13 14.01Q127.69 14.78 128.83 14.78ZM147.46 12.15L147.46 15.68L146.29 15.68L146.29 12.40L146.29 12.40Q146.29 12.04 146.12 11.84L146.12 11.84L146.12 11.84Q145.95 11.65 145.53 11.65L145.53 11.65L142.48 11.65L142.48 15.68L141.30 15.68L141.30 5.88L144.80 5.88L144.80 5.88Q145.56 5.88 146.12 6.10L146.12 6.10L146.12 6.10Q146.68 6.31 147.05 6.68L147.05 6.68L147.05 6.68Q147.42 7.04 147.61 7.53L147.61 7.53L147.61 7.53Q147.80 8.01 147.80 8.54L147.80 8.54L147.80 8.96L147.80 8.96Q147.80 9.51 147.50 10.05L147.50 10.05L147.50 10.05Q147.20 10.60 146.57 10.89L146.57 10.89L146.57 11.06L146.57 11.06Q146.99 11.13 147.22 11.40L147.22 11.40L147.22 11.40Q147.46 11.66 147.46 12.15L147.46 12.15ZM142.48 6.97L142.48 10.56L144.66 10.56L144.66 10.56Q145.66 10.56 146.14 10.13L146.14 10.13L146.14 10.13Q146.62 9.70 146.62 8.88L146.62 8.88L146.62 8.62L146.62 8.62Q146.62 7.88 146.14 7.43L146.14 7.43L146.14 7.43Q145.66 6.97 144.66 6.97L144.66 6.97L142.48 6.97ZM178.35 15.68L177.63 13.24L173.43 13.24L172.72 15.68L171.46 15.68L174.43 5.88L176.64 5.88L179.61 15.68L178.35 15.68ZM175.62 6.38L175.45 6.38L173.75 12.15L177.31 12.15L175.62 6.38ZM188.03 15.68L188.03 5.88L189.21 5.88L189.21 14.59L194.33 14.59L194.33 15.68L188.03 15.68ZM203.60 15.68L203.60 5.88L204.78 5.88L204.78 14.59L209.90 14.59L209.90 15.68L203.60 15.68Z"></path></g></svg>